<svg width="52" height="52" viewBox="0 0 52 52" fill="none" xmlns="http://www.w3.org/2000/svg">
<circle cx="26.0627" cy="25.8847" r="24" transform="rotate(177 26.0627 25.8847)" fill="#FEE145"/>
<path d="M31.2249 26.1623C30.3762 25.981 29.9401 25.6652 29.9165 25.2148C29.8918 24.744 30.0581 23.9142 30.4154 22.7255C30.7936 21.5356 31.3874 20.0574 32.1969 18.2907C32.1884 18.127 32.1065 17.967 31.9515 17.8109C31.7965 17.6548 31.6457 17.5806 31.4993 17.5883C30.8716 17.6212 29.9852 18.9198 28.8398 21.4841C27.7154 24.0472 27.1902 26.0351 27.2642 27.4475C27.3383 28.86 27.7881 30.0372 28.6137 30.9792C29.4382 31.9008 30.3316 32.3363 31.294 32.2859C32.2773 32.2343 33.027 31.9282 33.5431 31.3675C34.0592 30.8067 34.292 30.0453 34.2416 29.0832C34.16 27.5274 33.1545 26.5538 31.2249 26.1623Z" fill="#0C0F03"/>
<path d="M19.6544 26.9534C19.059 26.7999 18.7532 26.5696 18.7371 26.2625C18.691 25.3823 19.0754 24.11 19.8902 22.4457C20.7051 20.7814 21.1093 19.8879 21.1029 19.765C21.0782 19.2942 20.8985 19.0676 20.5638 19.0851C19.7687 19.1268 18.7143 20.4239 17.4006 22.9765C16.0857 25.5086 15.4653 27.4809 15.5393 28.8933C15.6842 31.6568 16.9073 32.9783 19.2086 32.8577C20.1501 32.8083 20.9014 32.5329 21.4625 32.0314C22.0237 31.5298 22.2828 30.8697 22.2398 30.0509C22.2002 29.2935 21.9132 28.6209 21.3789 28.0331C20.8446 27.4453 20.2698 27.0854 19.6544 26.9534Z" fill="#0C0F03"/>
</svg>
