<svg width="16" height="16" viewBox="0 0 16 16" fill="none" xmlns="http://www.w3.org/2000/svg">
<path d="M16 3.06667C15.4 3.33333 14.8 3.53333 14.1333 3.6C14.8 3.2 15.3333 2.53333 15.6 1.8C14.9333 2.2 14.2667 2.46667 13.5333 2.6C12.9333 1.93333 12.0667 1.53333 11.1333 1.53333C9.33333 1.53333 7.86667 3 7.86667 4.8C7.86667 5.06667 7.86667 5.33333 7.93333 5.53333C5.13333 5.4 2.73333 4.06667 1.13333 2.06667C0.8 2.6 0.666667 3.13333 0.666667 3.73333C0.666667 4.86667 1.26667 5.86667 2.13333 6.46667C1.6 6.46667 1.06667 6.33333 0.666667 6.06667C0.666667 6.06667 0.666667 6.06667 0.666667 6.13333C0.666667 7.73333 1.8 9.06667 3.26667 9.33333C3 9.4 2.73333 9.46667 2.4 9.46667C2.2 9.46667 2 9.46667 1.8 9.4C2.2 10.7333 3.4 11.6667 4.86667 11.6667C3.73333 12.5333 2.33333 13.0667 0.8 13.0667C0.533333 13.0667 0.266667 13.0667 0 13C1.46667 13.9333 3.2 14.4667 5 14.4667C11.0667 14.4667 14.3333 9.46667 14.3333 5.13333C14.3333 5 14.3333 4.86667 14.3333 4.73333C15 4.26667 15.5333 3.66667 16 3.06667Z" fill="#676A6C"/>
</svg>
