<svg width="16" height="16" viewBox="0 0 16 16" fill="none" xmlns="http://www.w3.org/2000/svg">
<g clip-path="url(#clip0_46_1541)">
<path d="M8.00008 1.988C9.95808 1.988 10.1901 1.99533 10.9634 2.03067C11.4283 2.03608 11.8889 2.12156 12.3247 2.28333C12.6434 2.40074 12.9316 2.58825 13.1681 2.832C13.4118 3.06846 13.5993 3.35667 13.7168 3.67534C13.8785 4.11124 13.964 4.57175 13.9694 5.03667C14.0048 5.81 14.0121 6.042 14.0121 8C14.0121 9.958 14.0048 10.19 13.9694 10.9633C13.964 11.4283 13.8785 11.8888 13.7168 12.3247C13.5947 12.641 13.4078 12.9282 13.1681 13.168C12.9283 13.4077 12.6411 13.5946 12.3247 13.7167C11.8889 13.8784 11.4283 13.9639 10.9634 13.9693C10.1901 14.0047 9.95808 14.012 8.00008 14.012C6.04208 14.012 5.81008 14.0047 5.03675 13.9693C4.57183 13.9639 4.11132 13.8784 3.67542 13.7167C3.35675 13.5993 3.06854 13.4118 2.83208 13.168C2.58833 12.9315 2.40082 12.6433 2.28341 12.3247C2.12164 11.8888 2.03616 11.4283 2.03075 10.9633C1.99541 10.19 1.98808 9.958 1.98808 8C1.98808 6.042 1.99541 5.81 2.03075 5.03667C2.03616 4.57175 2.12164 4.11124 2.28341 3.67534C2.40082 3.35667 2.58833 3.06846 2.83208 2.832C3.06854 2.58825 3.35675 2.40074 3.67542 2.28333C4.11132 2.12156 4.57183 2.03608 5.03675 2.03067C5.81008 1.99533 6.04208 1.988 8.00008 1.988ZM8.00008 0.666668C6.00875 0.666668 5.75875 0.675335 4.97675 0.710668C4.36847 0.723239 3.76668 0.838413 3.19675 1.05133C2.70911 1.24012 2.26635 1.52879 1.89689 1.89883C1.52743 2.26886 1.23944 2.71207 1.05141 3.2C0.838493 3.76993 0.723319 4.37172 0.710748 4.98C0.675415 5.75867 0.666748 6.00867 0.666748 8C0.666748 9.99134 0.675415 10.2413 0.710748 11.0233C0.723319 11.6316 0.838493 12.2334 1.05141 12.8033C1.2402 13.291 1.52887 13.7337 1.89891 14.1032C2.26894 14.4727 2.71215 14.7606 3.20008 14.9487C3.77002 15.1616 4.3718 15.2768 4.98008 15.2893C5.75875 15.3247 6.00875 15.3333 8.00008 15.3333C9.99142 15.3333 10.2414 15.3247 11.0234 15.2893C11.6317 15.2768 12.2335 15.1616 12.8034 14.9487C13.2911 14.7599 13.7338 14.4712 14.1033 14.1012C14.4727 13.7311 14.7607 13.2879 14.9488 12.8C15.1617 12.2301 15.2768 11.6283 15.2894 11.02C15.3248 10.2413 15.3334 9.99134 15.3334 8C15.3334 6.00867 15.3248 5.75867 15.2894 4.97667C15.2768 4.36839 15.1617 3.7666 14.9488 3.19667C14.76 2.70903 14.4713 2.26627 14.1013 1.89681C13.7312 1.52735 13.288 1.23936 12.8001 1.05133C12.2302 0.838413 11.6284 0.723239 11.0201 0.710668C10.2414 0.675335 9.99142 0.666668 8.00008 0.666668Z" fill="#676A6C"/>
<path d="M8.00013 4.234C7.25529 4.234 6.52717 4.45487 5.90786 4.86869C5.28854 5.2825 4.80584 5.87067 4.5208 6.55882C4.23576 7.24696 4.16118 8.00418 4.3065 8.73471C4.45181 9.46524 4.81048 10.1363 5.33717 10.663C5.86385 11.1897 6.53489 11.5483 7.26542 11.6936C7.99596 11.839 8.75317 11.7644 9.44132 11.4793C10.1295 11.1943 10.7176 10.7116 11.1314 10.0923C11.5453 9.47296 11.7661 8.74485 11.7661 8C11.7661 7.0012 11.3694 6.0433 10.6631 5.33704C9.95684 4.63078 8.99894 4.234 8.00013 4.234ZM8.00013 10.4447C7.51662 10.4447 7.04397 10.3013 6.64195 10.0327C6.23993 9.76404 5.92659 9.38224 5.74156 8.93554C5.55652 8.48883 5.50811 7.99729 5.60244 7.52307C5.69677 7.04885 5.9296 6.61325 6.27149 6.27136C6.61339 5.92947 7.04898 5.69664 7.5232 5.60231C7.99742 5.50798 8.48896 5.55639 8.93567 5.74142C9.38237 5.92646 9.76418 6.23979 10.0328 6.64182C10.3014 7.04384 10.4448 7.51649 10.4448 8C10.4448 8.64837 10.1872 9.27018 9.72877 9.72864C9.27031 10.1871 8.6485 10.4447 8.00013 10.4447Z" fill="#676A6C"/>
<path d="M11.9147 4.96533C12.4007 4.96533 12.7947 4.57134 12.7947 4.08533C12.7947 3.59932 12.4007 3.20533 11.9147 3.20533C11.4287 3.20533 11.0347 3.59932 11.0347 4.08533C11.0347 4.57134 11.4287 4.96533 11.9147 4.96533Z" fill="#676A6C"/>
</g>
<defs>
<clipPath id="clip0_46_1541">
<rect width="16" height="16" fill="white"/>
</clipPath>
</defs>
</svg>
