<svg width="13" height="12" viewBox="0 0 13 12" fill="none" xmlns="http://www.w3.org/2000/svg">
<path d="M10.2847 7.46476C10.1174 7.62328 10.0405 7.85253 10.0786 8.07736L10.653 11.1845C10.7014 11.4479 10.5877 11.7144 10.3622 11.8666C10.1413 12.0245 9.84731 12.0434 9.60633 11.9171L6.74488 10.4582C6.64539 10.4065 6.53491 10.3787 6.42185 10.3755H6.24676C6.18603 10.3844 6.1266 10.4033 6.07233 10.4324L3.21024 11.8982C3.06875 11.9676 2.90852 11.9923 2.75153 11.9676C2.36906 11.8969 2.11386 11.5407 2.17653 11.1649L2.75153 8.05778C2.78965 7.83106 2.71277 7.60054 2.54543 7.4395L0.212477 5.22912C0.0173636 5.04408 -0.0504736 4.76621 0.0386839 4.51549C0.125257 4.2654 0.346213 4.08289 0.61304 4.04184L3.824 3.5865C4.06822 3.56187 4.28271 3.41661 4.39255 3.20189L5.80744 0.366291C5.84103 0.303138 5.88432 0.245036 5.93665 0.195776L5.9948 0.151569C6.02516 0.118729 6.06005 0.0915728 6.09881 0.069469L6.16924 0.0442076L6.27907 0H6.55106C6.79399 0.0246299 7.00783 0.166726 7.1196 0.378922L8.55323 3.20189C8.6566 3.4084 8.85753 3.55176 9.08947 3.5865L12.3004 4.04184C12.5718 4.07973 12.7986 4.26287 12.8884 4.51549C12.973 4.76873 12.9 5.04661 12.701 5.22912L10.2847 7.46476Z" fill="#FEE145"/>
</svg>
