<svg width="24" height="24" viewBox="0 0 24 24" fill="none" xmlns="http://www.w3.org/2000/svg">
<path d="M15.1 3.6C15.1 5.31209 13.7121 6.7 12 6.7C10.2879 6.7 8.9 5.31209 8.9 3.6C8.9 1.88792 10.2879 0.5 12 0.5C13.7121 0.5 15.1 1.88792 15.1 3.6ZM1.06088 20.5562C0.741597 20.5395 0.5 20.2792 0.5 19.9969V8.2C0.5 7.91818 0.718762 7.7229 0.964685 7.73817C2.89998 7.85833 7.33488 8.35232 11.2926 10.3585C11.737 10.5838 12.263 10.5838 12.7074 10.3585C16.6651 8.35232 21.1 7.85833 23.0353 7.73817C23.2812 7.7229 23.5 7.91818 23.5 8.2V19.9969C23.5 20.2792 23.2584 20.5395 22.9391 20.5562C21.0577 20.6542 16.91 21.1312 12.231 23.3341C12.0855 23.4025 11.9145 23.4025 11.769 23.3341C7.08995 21.1312 2.94233 20.6542 1.06088 20.5562Z" fill="#C8F031" stroke="#0C0F03"/>
</svg>
